<?xml version="1.0" encoding="UTF-8"?>
<svg xmlns="http://www.w3.org/2000/svg" style="display: none;">
  <symbol id="hammer-sickle" viewBox="0 0 331 331">
    <path d="M165.49 15.47a240.64 240.64 0 0 1 81.95 49.57c22.67 21.13 41.91 47.01 51.07 76.93 6.2 19.23 4.93 40.01.83 59.54-4.1 18.19-12.1 35.53-23.76 50.12 13.22 12.92 26.3 25.97 39.56 38.86-1.77 6.6-4.47 13.35-9.9 17.8-4.54 3.92-10.35 5.82-16.07 7.24-12.94-13.44-25.95-26.82-38.9-40.26-16.13 11.02-35.6 16.83-55.03 17.68-24.48 1.09-48.95-6.8-68.93-20.82-10.77-7.4-20.48-16.26-29.38-25.8a47.79 47.79 0 0 1-4.9 4.13c.42 3.2.88 6.4 1.32 9.6-3.34.2-6.68 1.01-9.49 2.9-8.66 5.49-14.68 14.01-20.83 22.02-7.63 9.9-14.48 20.89-25.11 27.9-6.45 3.98-15.98 2.3-19.92-4.39-4.13-6.56-1.75-15.03 2.7-20.79 10.86-15.96 30.25-22.78 42.39-37.49a34.69 34.69 0 0 0 6.73-13.46l9.3.6c2.63-2.66 5.27-5.31 7.89-7.99 2.92-.07 5.9.24 8.77-.32 3.01-2.66 5.4-5.92 8.13-8.86 2.97.84 4.66 3.63 6.81 5.62 13.31 12.12 28.53 22.68 45.87 28.07 22.18 7.1 46.9 4.85 67.7-5.5-41.68-42.9-83.2-85.94-124.82-128.9-9.33 9.82-18.63 19.69-28.1 29.38-11.55-11.79-23.23-23.47-34.84-35.2 21.9-21.92 44.04-43.6 66.06-65.4 19.03 5.19 38.05 10.46 57.1 15.58-13.02 11.82-26.26 23.4-39.32 35.17 43.42 42.57 86.62 85.36 130.1 127.86 10.5-12.77 16.41-29.03 17.22-45.5 1.48-21.79-3.56-43.46-10.75-63.9-10.15-26.97-29.56-49.18-50.65-68.28a705.62 705.62 0 0 0-40.8-33.7z"/>
  </symbol>
  <symbol id="wheelchair-moving-custom" viewBox="0 0 576 512">
    <path d="M152.5 247.2a24 24 0 1 0-16.9-44.9 160 160 0 1 0 197.6 225 24 24 0 1 0-42.4-22.6 112 112 0 1 1-138.3-157.5Zm35.4-109.5 53 24.1-45.1 126.5a47.7 47.7 0 0 0 48 63.6l2.6.1H322l2.5-.1h18.2a16 16 0 0 1 15 10.4l36.3 96.9a32 32 0 0 0 40.1 19.1l48-16a32 32 0 1 0-20.3-60.7l-18.7 6.2-25.5-68a80 80 0 0 0-74.9-51.9h-45.5l37.5-105.1a47.7 47.7 0 0 0-10.4-49 31.8 31.8 0 0 0-12.5-10L201.7 73.7a31.9 31.9 0 0 0-10.9-2.8 32 32 0 0 0-25.8 4.8l-53.1 36.9a32 32 0 0 0 36.5 52.5l39.5-27.4ZM324 96a48 48 0 1 0 0-96 48 48 0 0 0 0 96Z"/>
  </symbol>

<!--!
fa-brands.svg
Font Awesome Free 6.2.0 by @fontawesome - https://fontawesome.com
License - https://fontawesome.com/license/free (Icons: CC BY 4.0, Fonts: SIL OFL 1.1, Code: MIT License)
Copyright 2022 Fonticons, Inc.
-->
  <symbol id="instagram" viewBox="0 0 448 512">
    <path d="M224.1 141c-63.6 0-114.9 51.3-114.9 114.9s51.3 114.9 114.9 114.9S339 319.5 339 255.9 287.7 141 224.1 141zm0 189.6c-41.1 0-74.7-33.5-74.7-74.7s33.5-74.7 74.7-74.7 74.7 33.5 74.7 74.7-33.6 74.7-74.7 74.7zm146.4-194.3c0 14.9-12 26.8-26.8 26.8-14.9 0-26.8-12-26.8-26.8s12-26.8 26.8-26.8 26.8 12 26.8 26.8zm76.1 27.2c-1.7-35.9-9.9-67.7-36.2-93.9-26.2-26.2-58-34.4-93.9-36.2-37-2.1-147.9-2.1-184.9 0-35.8 1.7-67.6 9.9-93.9 36.1s-34.4 58-36.2 93.9c-2.1 37-2.1 147.9 0 184.9 1.7 35.9 9.9 67.7 36.2 93.9s58 34.4 93.9 36.2c37 2.1 147.9 2.1 184.9 0 35.9-1.7 67.7-9.9 93.9-36.2 26.2-26.2 34.4-58 36.2-93.9 2.1-37 2.1-147.8 0-184.8zM398.8 388c-7.8 19.6-22.9 34.7-42.6 42.6-29.5 11.7-99.5 9-132.1 9s-102.7 2.6-132.1-9c-19.6-7.8-34.7-22.9-42.6-42.6-11.7-29.5-9-99.5-9-132.1s-2.6-102.7 9-132.1c7.8-19.6 22.9-34.7 42.6-42.6 29.5-11.7 99.5-9 132.1-9s102.7-2.6 132.1 9c19.6 7.8 34.7 22.9 42.6 42.6 11.7 29.5 9 99.5 9 132.1s2.7 102.7-9 132.1z"></path>
  </symbol>
  <symbol id="github" viewBox="0 0 496 512">
    <path d="M165.9 397.4c0 2-2.3 3.6-5.2 3.6-3.3.3-5.6-1.3-5.6-3.6 0-2 2.3-3.6 5.2-3.6 3-.3 5.6 1.3 5.6 3.6zm-31.1-4.5c-.7 2 1.3 4.3 4.3 4.9 2.6 1 5.6 0 6.2-2s-1.3-4.3-4.3-5.2c-2.6-.7-5.5.3-6.2 2.3zm44.2-1.7c-2.9.7-4.9 2.6-4.6 4.9.3 2 2.9 3.3 5.9 2.6 2.9-.7 4.9-2.6 4.6-4.6-.3-1.9-3-3.2-5.9-2.9zM244.8 8C106.1 8 0 113.3 0 252c0 110.9 69.8 205.8 169.5 239.2 12.8 2.3 17.3-5.6 17.3-12.1 0-6.2-.3-40.4-.3-61.4 0 0-70 15-84.7-29.8 0 0-11.4-29.1-27.8-36.6 0 0-22.9-15.7 1.6-15.4 0 0 24.9 2 38.6 25.8 21.9 38.6 58.6 27.5 72.9 20.9 2.3-16 8.8-27.1 16-33.7-55.9-6.2-112.3-14.3-112.3-110.5 0-27.5 7.6-41.3 23.6-58.9-2.6-6.5-11.1-33.3 2.6-67.9 20.9-6.5 69 27 69 27 20-5.6 41.5-8.5 62.8-8.5s42.8 2.9 62.8 8.5c0 0 48.1-33.6 69-27 13.7 34.7 5.2 61.4 2.6 67.9 16 17.7 25.8 31.5 25.8 58.9 0 96.5-58.9 104.2-114.8 110.5 9.2 7.9 17 22.9 17 46.4 0 33.7-.3 75.4-.3 83.6 0 6.5 4.6 14.4 17.3 12.1C428.2 457.8 496 362.9 496 252 496 113.3 383.5 8 244.8 8zM97.2 352.9c-1.3 1-1 3.3.7 5.2 1.6 1.6 3.9 2.3 5.2 1 1.3-1 1-3.3-.7-5.2-1.6-1.6-3.9-2.3-5.2-1zm-10.8-8.1c-.7 1.3.3 2.9 2.3 3.9 1.6 1 3.6.7 4.3-.7.7-1.3-.3-2.9-2.3-3.9-2-.6-3.6-.3-4.3.7zm32.4 35.6c-1.6 1.3-1 4.3 1.3 6.2 2.3 2.3 5.2 2.6 6.5 1 1.3-1.3.7-4.3-1.3-6.2-2.2-2.3-5.2-2.6-6.5-1zm-11.4-14.7c-1.6 1-1.6 3.6 0 5.9 1.6 2.3 4.3 3.3 5.6 2.3 1.6-1.3 1.6-3.9 0-6.2-1.4-2.3-4-3.3-5.6-2z"></path>
  </symbol>
  <symbol id="telegram" viewBox="0 0 496 512">
    <path d="M248,8C111.033,8,0,119.033,0,256S111.033,504,248,504,496,392.967,496,256,384.967,8,248,8ZM362.952,176.66c-3.732,39.215-19.881,134.378-28.1,178.3-3.476,18.584-10.322,24.816-16.948,25.425-14.4,1.326-25.338-9.517-39.287-18.661-21.827-14.308-34.158-23.215-55.346-37.177-24.485-16.135-8.612-25,5.342-39.5,3.652-3.793,67.107-61.51,68.335-66.746.153-.655.3-3.1-1.154-4.384s-3.59-.849-5.135-.5q-3.283.746-104.608,69.142-14.845,10.194-26.894,9.934c-8.855-.191-25.888-5.006-38.551-9.123-15.531-5.048-27.875-7.717-26.8-16.291q.84-6.7,18.45-13.7,108.446-47.248,144.628-62.3c68.872-28.647,83.183-33.623,92.511-33.789,2.052-.034,6.639.474,9.61,2.885a10.452,10.452,0,0,1,3.53,6.716A43.765,43.765,0,0,1,362.952,176.66Z"></path>
  </symbol>

<!--!
fa-solid.svg
Font Awesome Free 6.2.0 by @fontawesome - https://fontawesome.com
License - https://fontawesome.com/license/free (Icons: CC BY 4.0, Fonts: SIL OFL 1.1, Code: MIT License)
Copyright 2022 Fonticons, Inc.
-->
  <symbol id="wallet" viewBox="0 0 512 512">
    <path d="M64 32C28.7 32 0 60.7 0 96V416c0 35.3 28.7 64 64 64H448c35.3 0 64-28.7 64-64V192c0-35.3-28.7-64-64-64H80c-8.8 0-16-7.2-16-16s7.2-16 16-16H448c17.7 0 32-14.3 32-32s-14.3-32-32-32H64zM416 336c-17.7 0-32-14.3-32-32s14.3-32 32-32s32 14.3 32 32s-14.3 32-32 32z"></path>
  </symbol>
  <symbol id="kiwi-bird" viewBox="0 0 576 512">
    <path d="M291.2 388.4c31.2-18.8 64.7-36.4 101.1-36.4H448c4.6 0 9.1-.2 13.6-.7l85.3 121.9c4 5.7 11.3 8.2 17.9 6.1s11.2-8.3 11.2-15.3V224c0-70.7-57.3-128-128-128H392.3c-36.4 0-69.9-17.6-101.1-36.4C262.3 42.1 228.3 32 192 32C86 32 0 118 0 224c0 71.1 38.6 133.1 96 166.3V456c0 13.3 10.7 24 24 24s24-10.7 24-24V410c15.3 3.9 31.4 6 48 6c5.4 0 10.7-.2 16-.7V456c0 13.3 10.7 24 24 24s24-10.7 24-24V405.1c12.4-4.4 24.2-10 35.2-16.7zM448 248c-13.3 0-24-10.7-24-24s10.7-24 24-24s24 10.7 24 24s-10.7 24-24 24z"></path>
  </symbol>
  <symbol id="piggy-bank" viewBox="0 0 576 512">
    <path d="M400 96l0 .7c-5.3-.4-10.6-.7-16-.7H256c-16.5 0-32.5 2.1-47.8 6c-.1-2-.2-4-.2-6c0-53 43-96 96-96s96 43 96 96zm-16 32c3.5 0 7 .1 10.4 .3c4.2 .3 8.4 .7 12.6 1.3C424.6 109.1 450.8 96 480 96h32l-18.8 75.1c15.8 14.8 28.7 32.8 37.5 52.9H544c17.7 0 32 14.3 32 32v96c0 17.7-14.3 32-32 32H512c-9.1 12.1-19.9 22.9-32 32v64c0 17.7-14.3 32-32 32H416c-17.7 0-32-14.3-32-32V448H256v32c0 17.7-14.3 32-32 32H192c-17.7 0-32-14.3-32-32V416c-34.9-26.2-58.7-66.3-63.2-112H68c-37.6 0-68-30.4-68-68s30.4-68 68-68h4c13.3 0 24 10.7 24 24s-10.7 24-24 24H68c-11 0-20 9-20 20s9 20 20 20H99.2c12.1-59.8 57.7-107.5 116.3-122.8c12.9-3.4 26.5-5.2 40.5-5.2H384zm64 136c0-13.3-10.7-24-24-24s-24 10.7-24 24s10.7 24 24 24s24-10.7 24-24z"></path>
  </symbol>
  <symbol id="keyboard" viewBox="0 0 576 512">
    <path d="M64 64C28.7 64 0 92.7 0 128V384c0 35.3 28.7 64 64 64H512c35.3 0 64-28.7 64-64V128c0-35.3-28.7-64-64-64H64zm16 64h32c8.8 0 16 7.2 16 16v32c0 8.8-7.2 16-16 16H80c-8.8 0-16-7.2-16-16V144c0-8.8 7.2-16 16-16zM64 240c0-8.8 7.2-16 16-16h32c8.8 0 16 7.2 16 16v32c0 8.8-7.2 16-16 16H80c-8.8 0-16-7.2-16-16V240zm16 80h32c8.8 0 16 7.2 16 16v32c0 8.8-7.2 16-16 16H80c-8.8 0-16-7.2-16-16V336c0-8.8 7.2-16 16-16zm80-176c0-8.8 7.2-16 16-16h32c8.8 0 16 7.2 16 16v32c0 8.8-7.2 16-16 16H176c-8.8 0-16-7.2-16-16V144zm16 80h32c8.8 0 16 7.2 16 16v32c0 8.8-7.2 16-16 16H176c-8.8 0-16-7.2-16-16V240c0-8.8 7.2-16 16-16zM160 336c0-8.8 7.2-16 16-16H400c8.8 0 16 7.2 16 16v32c0 8.8-7.2 16-16 16H176c-8.8 0-16-7.2-16-16V336zM272 128h32c8.8 0 16 7.2 16 16v32c0 8.8-7.2 16-16 16H272c-8.8 0-16-7.2-16-16V144c0-8.8 7.2-16 16-16zM256 240c0-8.8 7.2-16 16-16h32c8.8 0 16 7.2 16 16v32c0 8.8-7.2 16-16 16H272c-8.8 0-16-7.2-16-16V240zM368 128h32c8.8 0 16 7.2 16 16v32c0 8.8-7.2 16-16 16H368c-8.8 0-16-7.2-16-16V144c0-8.8 7.2-16 16-16zM352 240c0-8.8 7.2-16 16-16h32c8.8 0 16 7.2 16 16v32c0 8.8-7.2 16-16 16H368c-8.8 0-16-7.2-16-16V240zM464 128h32c8.8 0 16 7.2 16 16v32c0 8.8-7.2 16-16 16H464c-8.8 0-16-7.2-16-16V144c0-8.8 7.2-16 16-16zM448 240c0-8.8 7.2-16 16-16h32c8.8 0 16 7.2 16 16v32c0 8.8-7.2 16-16 16H464c-8.8 0-16-7.2-16-16V240zm16 80h32c8.8 0 16 7.2 16 16v32c0 8.8-7.2 16-16 16H464c-8.8 0-16-7.2-16-16V336c0-8.8 7.2-16 16-16z"></path>
  </symbol>
  <symbol id="globe" viewBox="0 0 512 512">
    <path d="M352 256c0 22.2-1.2 43.6-3.3 64H163.3c-2.2-20.4-3.3-41.8-3.3-64s1.2-43.6 3.3-64H348.7c2.2 20.4 3.3 41.8 3.3 64zm28.8-64H503.9c5.3 20.5 8.1 41.9 8.1 64s-2.8 43.5-8.1 64H380.8c2.1-20.6 3.2-42 3.2-64s-1.1-43.4-3.2-64zm112.6-32H376.7c-10-63.9-29.8-117.4-55.3-151.6c78.3 20.7 142 77.5 171.9 151.6zm-149.1 0H167.7c6.1-36.4 15.5-68.6 27-94.7c10.5-23.6 22.2-40.7 33.5-51.5C239.4 3.2 248.7 0 256 0s16.6 3.2 27.8 13.8c11.3 10.8 23 27.9 33.5 51.5c11.6 26 21 58.2 27 94.7zm-209 0H18.6C48.6 85.9 112.2 29.1 190.6 8.4C165.1 42.6 145.3 96.1 135.3 160zM8.1 192H131.2c-2.1 20.6-3.2 42-3.2 64s1.1 43.4 3.2 64H8.1C2.8 299.5 0 278.1 0 256s2.8-43.5 8.1-64zM194.7 446.6c-11.6-26-20.9-58.2-27-94.6H344.3c-6.1 36.4-15.5 68.6-27 94.6c-10.5 23.6-22.2 40.7-33.5 51.5C272.6 508.8 263.3 512 256 512s-16.6-3.2-27.8-13.8c-11.3-10.8-23-27.9-33.5-51.5zM135.3 352c10 63.9 29.8 117.4 55.3 151.6C112.2 482.9 48.6 426.1 18.6 352H135.3zm358.1 0c-30 74.1-93.6 130.9-171.9 151.6c25.5-34.2 45.2-87.7 55.3-151.6H493.4z"></path>
  </symbol>
  <symbol id="cat" viewBox="0 0 512 512">
    <path d="M288 192h17.1c22.1 38.3 63.5 64 110.9 64c11 0 21.8-1.4 32-4v4 32V480c0 17.7-14.3 32-32 32s-32-14.3-32-32V339.2L248 448h56c17.7 0 32 14.3 32 32s-14.3 32-32 32H160c-53 0-96-43-96-96V192.5c0-16.1-12-29.8-28-31.8l-7.9-1C10.5 157.6-1.9 141.6 .2 124s18.2-30 35.7-27.8l7.9 1c48 6 84.1 46.8 84.1 95.3v85.3c34.4-51.7 93.2-85.8 160-85.8zm160 26.5v0c-10 3.5-20.8 5.5-32 5.5c-28.4 0-54-12.4-71.6-32h0c-3.7-4.1-7-8.5-9.9-13.2C325.3 164 320 146.6 320 128v0V32 12 10.7C320 4.8 324.7 .1 330.6 0h.2c3.3 0 6.4 1.6 8.4 4.2l0 .1L352 21.3l27.2 36.3L384 64h64l4.8-6.4L480 21.3 492.8 4.3l0-.1c2-2.6 5.1-4.2 8.4-4.2h.2C507.3 .1 512 4.8 512 10.7V12 32v96c0 17.3-4.6 33.6-12.6 47.6c-11.3 19.8-29.6 35.2-51.4 42.9zM400 128c0-8.8-7.2-16-16-16s-16 7.2-16 16s7.2 16 16 16s16-7.2 16-16zm48 16c8.8 0 16-7.2 16-16s-7.2-16-16-16s-16 7.2-16 16s7.2 16 16 16z"></path>
  </symbol>
  <symbol id="shekel-sign" viewBox="0 0 448 512">
    <path d="M32 32C14.3 32 0 46.3 0 64V448c0 17.7 14.3 32 32 32s32-14.3 32-32V96H192c35.3 0 64 28.7 64 64V320c0 17.7 14.3 32 32 32s32-14.3 32-32V160c0-70.7-57.3-128-128-128H32zM320 480c70.7 0 128-57.3 128-128V64c0-17.7-14.3-32-32-32s-32 14.3-32 32V352c0 35.3-28.7 64-64 64H192V192c0-17.7-14.3-32-32-32s-32 14.3-32 32V448c0 17.7 14.3 32 32 32H320z"></path>
  </symbol>
  <symbol id="envelope" viewBox="0 0 512 512">
    <path d="M48 64C21.5 64 0 85.5 0 112c0 15.1 7.1 29.3 19.2 38.4L236.8 313.6c11.4 8.5 27 8.5 38.4 0L492.8 150.4c12.1-9.1 19.2-23.3 19.2-38.4c0-26.5-21.5-48-48-48H48zM0 176V384c0 35.3 28.7 64 64 64H448c35.3 0 64-28.7 64-64V176L294.4 339.2c-22.8 17.1-54 17.1-76.8 0L0 176z"></path>
  </symbol>
  <symbol id="file-video" viewBox="0 0 384 512">
    <path d="M64 0C28.7 0 0 28.7 0 64V448c0 35.3 28.7 64 64 64H320c35.3 0 64-28.7 64-64V160H256c-17.7 0-32-14.3-32-32V0H64zM256 0V128H384L256 0zM64 288c0-17.7 14.3-32 32-32h96c17.7 0 32 14.3 32 32v96c0 17.7-14.3 32-32 32H96c-17.7 0-32-14.3-32-32V288zM300.9 397.9L256 368V304l44.9-29.9c2-1.3 4.4-2.1 6.8-2.1c6.8 0 12.3 5.5 12.3 12.3V387.7c0 6.8-5.5 12.3-12.3 12.3c-2.4 0-4.8-.7-6.8-2.1z"></path>
  </symbol>
  <symbol id="wheelchair-move" viewBox="0 0 448 512">
    <path d="M416 48c0 26.5-21.5 48-48 48s-48-21.5-48-48s21.5-48 48-48s48 21.5 48 48zM204.5 121.3c-5.4-2.5-11.7-1.9-16.4 1.7l-40.9 30.7c-14.1 10.6-34.2 7.7-44.8-6.4s-7.7-34.2 6.4-44.8l40.9-30.7c23.7-17.8 55.3-21 82.1-8.4l90.4 42.5c29.1 13.7 36.8 51.6 15.2 75.5L299.1 224h97.4c30.3 0 53 27.7 47.1 57.4L415.4 422.3c-3.5 17.3-20.3 28.6-37.7 25.1s-28.6-20.3-25.1-37.7L377 288H306.7c8.6 19.6 13.3 41.2 13.3 64c0 88.4-71.6 160-160 160S0 440.4 0 352s71.6-160 160-160c11.1 0 22 1.1 32.4 3.3l54.2-54.2-42.1-19.8zM160 448c53 0 96-43 96-96s-43-96-96-96s-96 43-96 96s43 96 96 96z"></path>
  </symbol>
  <symbol id="wheelchair" viewBox="0 0 576 512">
    <path d="M224 96c26.5 0 48-21.5 48-48s-21.5-48-48-48s-48 21.5-48 48s21.5 48 48 48zM152.5 247.2c12.4-4.7 18.7-18.5 14-30.9s-18.5-18.7-30.9-14C75.1 225.1 32 283.5 32 352c0 88.4 71.6 160 160 160c61.2 0 114.3-34.3 141.2-84.7c6.2-11.7 1.8-26.2-9.9-32.5s-26.2-1.8-32.5 9.9C272 440 234.8 464 192 464c-61.9 0-112-50.1-112-112c0-47.9 30.1-88.8 72.5-104.8zM291.8 176l-1.9-9.7c-4.5-22.3-24-38.3-46.8-38.3c-30.1 0-52.7 27.5-46.8 57l23.1 115.5c6 29.9 32.2 51.4 62.8 51.4h5.1c.4 0 .8 0 1.3 0h94.1c6.7 0 12.6 4.1 15 10.4L434 459.2c6 16.1 23.8 24.6 40.1 19.1l48-16c16.8-5.6 25.8-23.7 20.2-40.5s-23.7-25.8-40.5-20.2l-18.7 6.2-25.5-68c-11.7-31.2-41.6-51.9-74.9-51.9H314.2l-9.6-48H368c17.7 0 32-14.3 32-32s-14.3-32-32-32H291.8z"></path>
  </symbol>
  <symbol id="dog" viewBox="0 0 576 512">
    <path d="M309.6 158.5L332.7 19.8C334.6 8.4 344.5 0 356.1 0c7.5 0 14.5 3.5 19 9.5L392 32h52.1c12.7 0 24.9 5.1 33.9 14.1L496 64h56c13.3 0 24 10.7 24 24v24c0 44.2-35.8 80-80 80H464 448 426.7l-5.1 30.5-112-64zM416 256.1L416 480c0 17.7-14.3 32-32 32H352c-17.7 0-32-14.3-32-32V364.8c-24 12.3-51.2 19.2-80 19.2s-56-6.9-80-19.2V480c0 17.7-14.3 32-32 32H96c-17.7 0-32-14.3-32-32V249.8c-28.8-10.9-51.4-35.3-59.2-66.5L1 167.8c-4.3-17.1 6.1-34.5 23.3-38.8s34.5 6.1 38.8 23.3l3.9 15.5C70.5 182 83.3 192 98 192h30 16H303.8L416 256.1zM464 80c0-8.8-7.2-16-16-16s-16 7.2-16 16s7.2 16 16 16s16-7.2 16-16z"></path>
  </symbol>
  <symbol id="frog" viewBox="0 0 576 512">
    <path d="M368 32c41.7 0 75.9 31.8 79.7 72.5l85.6 26.3c25.4 7.8 42.8 31.3 42.8 57.9c0 21.8-11.7 41.9-30.7 52.7L400.8 323.5 493.3 416H544c17.7 0 32 14.3 32 32s-14.3 32-32 32H480c-8.5 0-16.6-3.4-22.6-9.4L346.9 360.2c11.7-36 3.2-77.1-25.4-105.7c-40.6-40.6-106.3-40.6-146.9-.1L101 324.4c-6.4 6.1-6.7 16.2-.6 22.6s16.2 6.6 22.6 .6l73.8-70.2 .1-.1 .1-.1c3.5-3.5 7.3-6.6 11.3-9.2c27.9-18.5 65.9-15.4 90.5 9.2c24.7 24.7 27.7 62.9 9 90.9c-2.6 3.8-5.6 7.5-9 10.9L261.8 416H352c17.7 0 32 14.3 32 32s-14.3 32-32 32H64c-35.3 0-64-28.7-64-64C0 249.6 127 112.9 289.3 97.5C296.2 60.2 328.8 32 368 32zm0 104c13.3 0 24-10.7 24-24s-10.7-24-24-24s-24 10.7-24 24s10.7 24 24 24z"></path>
  </symbol>
  <symbol id="robot" viewBox="0 0 640 512">
    <path d="M320 0c17.7 0 32 14.3 32 32V96H480c35.3 0 64 28.7 64 64V448c0 35.3-28.7 64-64 64H160c-35.3 0-64-28.7-64-64V160c0-35.3 28.7-64 64-64H288V32c0-17.7 14.3-32 32-32zM208 384c-8.8 0-16 7.2-16 16s7.2 16 16 16h32c8.8 0 16-7.2 16-16s-7.2-16-16-16H208zm96 0c-8.8 0-16 7.2-16 16s7.2 16 16 16h32c8.8 0 16-7.2 16-16s-7.2-16-16-16H304zm96 0c-8.8 0-16 7.2-16 16s7.2 16 16 16h32c8.8 0 16-7.2 16-16s-7.2-16-16-16H400zM264 256c0-22.1-17.9-40-40-40s-40 17.9-40 40s17.9 40 40 40s40-17.9 40-40zm152 40c22.1 0 40-17.9 40-40s-17.9-40-40-40s-40 17.9-40 40s17.9 40 40 40zM48 224H64V416H48c-26.5 0-48-21.5-48-48V272c0-26.5 21.5-48 48-48zm544 0c26.5 0 48 21.5 48 48v96c0 26.5-21.5 48-48 48H576V224h16z"></path>
  </symbol>
  <symbol id="record-vinyl" viewBox="0 0 512 512">
    <path d="M512 256c0 141.4-114.6 256-256 256S0 397.4 0 256S114.6 0 256 0S512 114.6 512 256zM256 352c-53 0-96-43-96-96s43-96 96-96s96 43 96 96s-43 96-96 96zm0 32c70.7 0 128-57.3 128-128s-57.3-128-128-128s-128 57.3-128 128s57.3 128 128 128zm0-96c17.7 0 32-14.3 32-32s-14.3-32-32-32s-32 14.3-32 32s14.3 32 32 32z"></path>
  </symbol>
  <symbol id="bullhorn" viewBox="0 0 512 512">
    <path d="M480 32c0-12.9-7.8-24.6-19.8-29.6s-25.7-2.2-34.9 6.9L381.7 53c-48 48-113.1 75-181 75H192 160 64c-35.3 0-64 28.7-64 64v96c0 35.3 28.7 64 64 64l0 128c0 17.7 14.3 32 32 32h64c17.7 0 32-14.3 32-32V352l8.7 0c67.9 0 133 27 181 75l43.6 43.6c9.2 9.2 22.9 11.9 34.9 6.9s19.8-16.6 19.8-29.6V300.4c18.6-8.8 32-32.5 32-60.4s-13.4-51.6-32-60.4V32zm-64 76.7V240 371.3C357.2 317.8 280.5 288 200.7 288H192V192h8.7c79.8 0 156.5-29.8 215.3-83.3z"></path>
  </symbol>
  <symbol id="chevron-left" viewBox="0 0 384 512">
    <path d="M41.4 233.4c-12.5 12.5-12.5 32.8 0 45.3l192 192c12.5 12.5 32.8 12.5 45.3 0s12.5-32.8 0-45.3L109.3 256 278.6 86.6c12.5-12.5 12.5-32.8 0-45.3s-32.8-12.5-45.3 0l-192 192z"></path>
  </symbol>
</svg>
